<svg width="24" height="23" viewBox="0 0 24 23" fill="none" xmlns="http://www.w3.org/2000/svg">
<path d="M21.3257 6.89296C21.1958 6.71151 21.0215 6.62079 20.8027 6.62079H6.87793L6.5 5.63689C6.4043 5.31431 6.27441 5.03877 6.11035 4.81028C5.94629 4.58178 5.77197 4.42049 5.5874 4.32641C5.40283 4.23232 5.24219 4.16848 5.10547 4.13488C4.96875 4.10127 4.83203 4.08447 4.69531 4.08447H1.88574C1.70801 4.08447 1.55762 4.14496 1.43457 4.26592C1.31152 4.38689 1.25 4.54146 1.25 4.72963C1.25 4.83716 1.27734 4.94133 1.33203 5.04213C1.38672 5.14294 1.46533 5.22023 1.56787 5.27399C1.67041 5.32775 1.77637 5.35463 1.88574 5.35463H4.69531C4.75 5.35463 4.80127 5.36135 4.84912 5.3748C4.89697 5.38824 4.96191 5.44536 5.04395 5.54617C5.12598 5.64697 5.19434 5.79818 5.24902 5.9998L8.19043 14.0764C8.21777 14.1571 8.26221 14.2343 8.32373 14.3083C8.38525 14.3822 8.45703 14.4393 8.53906 14.4796C8.62109 14.52 8.70996 14.5401 8.80566 14.5401H17.665C17.8018 14.5401 17.9282 14.4998 18.0444 14.4191C18.1606 14.3385 18.2393 14.2377 18.2803 14.1167L21.418 7.48772C21.4863 7.27267 21.4556 7.07442 21.3257 6.89296ZM17.2139 13.2498H9.31836L7.22656 7.91111H19.8594L17.2139 13.2498ZM16.0312 15.2398C15.5801 15.2398 15.1938 15.3977 14.8726 15.7136C14.5513 16.0294 14.3906 16.4092 14.3906 16.8527C14.3906 17.2963 14.5513 17.676 14.8726 17.9918C15.1938 18.3077 15.5801 18.4656 16.0312 18.4656C16.4824 18.4656 16.8687 18.3077 17.1899 17.9918C17.5112 17.676 17.6719 17.2963 17.6719 16.8527C17.6719 16.4092 17.5112 16.0294 17.1899 15.7136C16.8687 15.3977 16.4824 15.2398 16.0312 15.2398ZM10.125 15.2398C9.82422 15.2398 9.54736 15.3137 9.29443 15.4616C9.0415 15.6094 8.84326 15.8043 8.69971 16.0463C8.55615 16.2882 8.48438 16.557 8.48438 16.8527C8.48438 17.2963 8.64502 17.676 8.96631 17.9918C9.2876 18.3077 9.67383 18.4656 10.125 18.4656C10.5762 18.4656 10.9624 18.3077 11.2837 17.9918C11.605 17.676 11.7656 17.2963 11.7656 16.8527C11.7656 16.7452 11.7554 16.6377 11.7349 16.5301C11.7144 16.4226 11.6836 16.3218 11.6426 16.2277C11.6016 16.1336 11.5503 16.0429 11.4888 15.9555C11.4272 15.8682 11.3589 15.7875 11.2837 15.7136C11.2085 15.6397 11.1265 15.5725 11.0376 15.512C10.9487 15.4515 10.8564 15.4011 10.7607 15.3608C10.665 15.3204 10.5625 15.2902 10.4531 15.27C10.3438 15.2499 10.2344 15.2398 10.125 15.2398Z" fill="white"/>
</svg>
