<svg width="39" height="39" viewBox="0 0 39 39" fill="none" xmlns="http://www.w3.org/2000/svg">
<rect width="39" height="39" rx="19.5" fill="#FFC85E"/>
<path d="M27.5294 27.5294L24.0989 24.0928L27.5294 27.5294ZM26 19.5C26 21.2239 25.3152 22.8772 24.0962 24.0962C22.8772 25.3152 21.2239 26 19.5 26C17.7761 26 16.1228 25.3152 14.9038 24.0962C13.6848 22.8772 13 21.2239 13 19.5C13 17.7761 13.6848 16.1228 14.9038 14.9038C16.1228 13.6848 17.7761 13 19.5 13C21.2239 13 22.8772 13.6848 24.0962 14.9038C25.3152 16.1228 26 17.7761 26 19.5V19.5Z" stroke="white" stroke-width="1.3" stroke-linecap="round"/>
</svg>
