<svg width="20" height="16" viewBox="0 0 20 16" fill="none" xmlns="http://www.w3.org/2000/svg">
<g opacity="0.23" clip-path="url(#clip0_56_668)">
<path d="M13.303 7.99994C12.7749 7.99994 12.278 7.71869 12.0092 7.26869L9.99986 3.93743L7.99361 7.26869C7.72173 7.72181 7.22486 8.00306 6.69673 8.00306C6.55611 8.00306 6.41548 7.98431 6.28111 7.94369L1.99986 6.71868V12.2812C1.99986 12.7406 2.31236 13.1406 2.75611 13.2499L9.51236 14.9406C9.83111 15.0187 10.1655 15.0187 10.4811 14.9406L17.2436 13.2499C17.6874 13.1374 17.9999 12.7374 17.9999 12.2812V6.71868L13.7186 7.94056C13.5842 7.98119 13.4436 7.99994 13.303 7.99994ZM19.9467 4.49369L18.3374 1.28118C18.2405 1.08743 18.0311 0.974934 17.8155 1.00306L9.99986 1.99993L12.8655 6.75306C12.9842 6.94993 13.2217 7.04368 13.4436 6.98118L19.628 5.21556C19.9374 5.12493 20.0874 4.78118 19.9467 4.49369ZM1.66236 1.28118L0.0529828 4.49369C-0.0907672 4.78118 0.0623578 5.12493 0.368608 5.21243L6.55298 6.97806C6.77486 7.04056 7.01236 6.94681 7.13111 6.74993L9.99986 1.99993L2.18111 1.00306C1.96548 0.978059 1.75923 1.08743 1.66236 1.28118Z" fill="#3F4E65"/>
</g>
<defs>
<clipPath id="clip0_56_668">
<rect width="20" height="16" fill="white"/>
</clipPath>
</defs>
</svg>
