<svg width="59" height="59" viewBox="0 0 59 59" fill="none" xmlns="http://www.w3.org/2000/svg">
<rect width="59" height="59" rx="29.5" fill="#FFC85E"/>
<path d="M32.625 23.25H37.3125C37.5197 23.25 37.7184 23.3323 37.8649 23.4788C38.0114 23.6253 38.0938 23.824 38.0938 24.0312C38.0938 24.2385 38.0114 24.4372 37.8649 24.5837C37.7184 24.7302 37.5197 24.8125 37.3125 24.8125H36.4484L35.2734 35.4C35.1673 36.3555 34.7125 37.2384 33.9961 37.8795C33.2797 38.5207 32.352 38.8751 31.3906 38.875H27.6094C26.648 38.8751 25.7203 38.5207 25.0039 37.8795C24.2875 37.2384 23.8327 36.3555 23.7266 35.4L22.55 24.8125H21.6875C21.4803 24.8125 21.2816 24.7302 21.1351 24.5837C20.9886 24.4372 20.9062 24.2385 20.9062 24.0312C20.9062 23.824 20.9886 23.6253 21.1351 23.4788C21.2816 23.3323 21.4803 23.25 21.6875 23.25H26.375C26.375 22.4212 26.7042 21.6263 27.2903 21.0403C27.8763 20.4542 28.6712 20.125 29.5 20.125C30.3288 20.125 31.1237 20.4542 31.7097 21.0403C32.2958 21.6263 32.625 22.4212 32.625 23.25ZM29.5 21.6875C29.0856 21.6875 28.6882 21.8521 28.3951 22.1451C28.1021 22.4382 27.9375 22.8356 27.9375 23.25H31.0625C31.0625 22.8356 30.8979 22.4382 30.6049 22.1451C30.3118 21.8521 29.9144 21.6875 29.5 21.6875ZM27.1562 27.9375V34.1875C27.1562 34.3947 27.2386 34.5934 27.3851 34.7399C27.5316 34.8864 27.7303 34.9688 27.9375 34.9688C28.1447 34.9688 28.3434 34.8864 28.4899 34.7399C28.6364 34.5934 28.7188 34.3947 28.7188 34.1875V27.9375C28.7188 27.7303 28.6364 27.5316 28.4899 27.3851C28.3434 27.2386 28.1447 27.1562 27.9375 27.1562C27.7303 27.1562 27.5316 27.2386 27.3851 27.3851C27.2386 27.5316 27.1562 27.7303 27.1562 27.9375ZM31.0625 27.1562C30.8553 27.1562 30.6566 27.2386 30.5101 27.3851C30.3636 27.5316 30.2812 27.7303 30.2812 27.9375V34.1875C30.2812 34.3947 30.3636 34.5934 30.5101 34.7399C30.6566 34.8864 30.8553 34.9688 31.0625 34.9688C31.2697 34.9688 31.4684 34.8864 31.6149 34.7399C31.7614 34.5934 31.8438 34.3947 31.8438 34.1875V27.9375C31.8438 27.7303 31.7614 27.5316 31.6149 27.3851C31.4684 27.2386 31.2697 27.1562 31.0625 27.1562Z" fill="white"/>
</svg>
